<svg xmlns="http://www.w3.org/2000/svg" viewBox="0 0 42.21 42.23">
<defs><style>.cls-1{fill:#14143c;}.cls-2{fill:#89899d;}</style></defs><g id="Layer_2" data-name="Layer 2"><rect class="cls-1" width="42.21" height="42.23"/></g><g><path class="cls-2" d="M11.25,30.11h0c0-.8.4-2.3-.1-3.3s-1.7-1.8-2.9-3c-.5-.4-1.6-1-1.6-2.3a2.12,2.12,0,0,1,2.1-2.2,2.48,2.48,0,0,1,.9.1,4.59,4.59,0,0,1,.7-1.6,6.05,6.05,0,0,0-1.5-.2A3.88,3.88,0,0,0,5,21.51c0,1.8,1.2,2.9,2.2,3.9a6.62,6.62,0,0,1,2.3,4.7Zm-1.7,3h23.2v-1.7H9.55Zm0,3h23.2v-1.7H9.55Zm4.8-6h1.8c.1-1.4.7-2.6.4-3.7s-2-2.3-2.7-3.4a3.48,3.48,0,0,1-1.2-2.5,2.08,2.08,0,0,1,2.2-2.1c1.6,0,2.3,1.4,4.3,1.4v-1.6c-1.1-.1-2.2-1.4-4.4-1.4a3.7,3.7,0,0,0-2.9,1.2,3.78,3.78,0,0,0-1,2.7,5,5,0,0,0,1.6,3.5A8,8,0,0,1,14.35,30.11Zm19.1-12.5a5,5,0,0,0-1.6.3,4.59,4.59,0,0,1,.7,1.6,3.08,3.08,0,0,1,.9-.1,2,2,0,0,1,2.1,2.2,3.78,3.78,0,0,1-1.4,2.5,13.46,13.46,0,0,0-2.9,3c-.5.9-.1,2.3-.1,3.3h1.6c.1-2.3,1.2-3.4,2.3-4.7,1-1,2.2-2.1,2.2-3.9A3.78,3.78,0,0,0,33.45,17.61Zm-10.3,2.2c1.8,0,2.7-1.4,4.3-1.4a2.14,2.14,0,0,1,2.2,2.1,3.51,3.51,0,0,1-1.2,2.5c-.9,1-2.5,2.2-2.7,3.4-.4,1,.3,2.2.4,3.7H28a8.45,8.45,0,0,1,2-6,5.23,5.23,0,0,0,1.6-3.5,4.27,4.27,0,0,0-1-2.7,3.85,3.85,0,0,0-2.9-1.2c-2.1,0-3.1,1.3-4.3,1.4v1.8A.31.31,0,0,0,23.15,19.81ZM22.05,30h0c.3-1.4.8-2,.8-3.3,0-1-.8-1.8-.8-5h0v-5h-1.8v5h0c0,3.1-.8,3.9-.8,5,0,1.3.5,1.8.8,3.3h1.8Zm-1.7-20.5h-1.7V7.91h1.7V6.11H22v1.8h1.7v1.6H22v1.7a2.2,2.2,0,0,1,1.5,2.2,2.3,2.3,0,1,1-3-2.2A9.7,9.7,0,0,1,20.35,9.51Zm-.1,4a.9.9,0,1,0,.9-.9A.9.9,0,0,0,20.25,13.51Z"/></g></svg>
