<svg xmlns="http://www.w3.org/2000/svg" viewBox="0 0 96.02 71.29">
    <path d="M29.22,68.88a3.49,3.49,0,0,1-.19-.39,5.05,5.05,0,0,1-.34-2.82H6L39.72,6.33,50.79,25.79,54,20.11l-9.65-17C44.08,2.62,42.45,0,39.64,0c-1.27,0-3.09.55-4.57,3.15L.91,63.21c-.29.52-1.7,3.25-.3,5.67.64,1.1,2,2.41,5,2.41H34.22C31.24,71.29,29.86,70,29.22,68.88Z" style="fill:#b0bec5"/>
    <path d="M95,63.21,66.93,13.76c-.29-.52-1.91-3.15-4.73-3.15-1.27,0-3.09.54-4.57,3.14L54,20.11l3.23,5.68,5-8.85L90,65.67H79.44a4.78,4.78,0,0,1-.22,2.4,3.06,3.06,0,0,1-.22.49l-.09.18c-1.42,2.42-4.49,2.55-5.09,2.55H90.34c.61,0,3.67-.13,5.09-2.55C96.06,67.64,96.51,65.79,95,63.21Z" style="fill:#78909c"/>
    <path d="M78.91,68.74l.09-.18a3.06,3.06,0,0,0,.22-.49,4.78,4.78,0,0,0,.22-2.4,7.47,7.47,0,0,0-.92-2.46L57.25,25.79,54,20.11l-3.23,5.68L29.51,63.21a7.68,7.68,0,0,0-.82,2.46A5,5,0,0,0,29,68.49a3.49,3.49,0,0,0,.19.39c.64,1.1,2,2.41,5,2.41h39.6C74.42,71.29,77.49,71.16,78.91,68.74ZM54,31.47l19.44,34.2H34.57Z" style="fill:#546e7a"/>
</svg>